<svg version="1.1" id="Layer_1" xmlns="http://www.w3.org/2000/svg" xmlns:xlink="http://www.w3.org/1999/xlink" x="0px" y="0px"
	 width="100%" viewBox="0 0 591 591" enable-background="new 0 0 591 591" xml:space="preserve">
<path fill="#FFFFFF" opacity="1.000000" stroke="none" 
	d="
M592.000000,210.000000 
	C592.000000,337.666656 592.000000,464.833344 592.000000,592.000000 
	C395.000000,592.000000 198.000000,592.000000 1.000000,592.000000 
	C1.000000,395.000000 1.000000,198.000000 1.000000,1.000000 
	C198.000000,1.000000 395.000000,1.000000 592.000000,1.000000 
	C592.000000,70.500000 592.000000,140.000000 592.000000,210.000000 
M250.999435,244.484955 
	C257.973602,263.871338 265.624634,283.047516 271.728790,302.704071 
	C277.658142,321.797729 280.840240,341.574432 282.041931,361.613037 
	C282.428925,368.066437 283.307770,374.490356 283.917725,380.496094 
	C292.711731,380.496094 300.764343,380.496094 308.340302,380.496094 
	C309.907135,366.975128 310.998230,353.586731 313.122833,340.364441 
	C315.171082,327.617188 317.315002,314.737610 321.154480,302.459534 
	C327.347748,282.654358 335.299042,263.406372 341.900421,243.719421 
	C350.311310,218.636063 354.459015,192.987915 352.185150,166.300629 
	C350.699524,148.864594 347.527557,131.960968 342.077911,115.395767 
	C334.753235,93.130997 324.231262,72.483688 310.780060,53.330166 
	C306.246704,46.875004 301.361420,40.667004 296.274170,33.860653 
	C294.692810,36.099190 293.955841,37.344276 293.028107,38.425743 
	C274.987457,59.456486 262.020325,83.455826 252.429764,109.263474 
	C243.671341,132.831940 238.952072,157.243591 240.046936,182.525024 
	C240.415787,191.041870 240.586227,199.676971 242.173660,208.005219 
	C244.462830,220.015121 247.962097,231.794357 250.999435,244.484955 
M134.838089,229.041382 
	C132.850800,229.706848 130.839890,230.309540 128.879745,231.047119 
	C96.438103,243.254730 83.991989,267.617310 89.164261,299.024933 
	C91.362534,312.373535 96.185181,324.955719 105.681938,335.124176 
	C110.917732,340.730316 116.988182,345.255188 124.419327,348.462830 
	C122.531898,336.841339 123.027664,329.209259 126.021790,323.880615 
	C135.691223,306.671936 154.394012,299.389984 171.843796,302.281372 
	C194.807968,306.086456 210.869568,320.257629 222.078369,340.344208 
	C230.374908,355.211914 235.358032,371.098236 237.369751,388.024139 
	C243.468231,386.640961 249.240524,384.969818 255.131348,384.128632 
	C258.785034,383.606934 260.531189,382.480469 260.008484,378.671265 
	C257.993439,363.986450 256.438568,349.223511 253.923294,334.625641 
	C249.525070,309.099884 240.740021,285.036743 228.038193,262.444244 
	C223.448090,254.279922 217.564346,247.323792 209.727631,241.905258 
	C186.977875,226.175339 162.035248,223.726181 134.838089,229.041382 
M366.477875,259.019012 
	C343.744354,297.125092 335.317535,339.166901 332.115021,382.675171 
	C339.786713,384.464355 347.133148,386.177673 354.726868,387.948669 
	C355.495880,384.390442 356.288635,380.942139 356.983002,377.474121 
	C361.673553,354.046936 370.780762,332.919586 389.464325,317.114044 
	C405.641510,303.428802 423.908264,297.723633 444.659302,305.080994 
	C458.155609,309.866150 472.693604,324.513306 468.989685,343.154327 
	C468.688141,344.671844 468.282166,346.168579 467.749969,348.411316 
	C480.952545,343.089111 489.663696,333.797394 495.629395,322.428833 
	C502.296692,309.723236 504.601654,295.725037 504.063019,281.256592 
	C503.580872,268.307465 498.843323,257.115051 490.199829,247.850021 
	C474.949188,231.502686 454.782043,226.839645 433.517731,226.194092 
	C426.304047,225.975098 418.908966,227.498779 411.793518,229.100235 
	C393.271851,233.268814 377.640533,242.157501 366.477875,259.019012 
M527.995605,367.506104 
	C531.085754,364.083435 534.330933,360.787140 537.240540,357.217255 
	C554.270386,336.322571 560.904114,311.712463 561.803162,285.398926 
	C562.072327,277.522919 560.313110,269.515869 558.965515,261.657654 
	C554.319458,234.564651 541.365906,212.240555 519.674561,195.245697 
	C507.321411,185.567230 493.129913,179.651749 477.570099,178.128677 
	C456.288788,176.045547 436.261230,180.480499 418.709717,193.150452 
	C411.501312,198.354004 405.089935,204.661636 397.313477,211.326218 
	C399.445618,211.440765 399.739258,211.523499 399.997681,211.460815 
	C411.586243,208.648697 423.035461,204.520172 434.788025,203.291580 
	C454.773773,201.202332 474.061981,204.811035 491.922668,214.914948 
	C505.219940,222.437286 515.683350,232.559830 522.976135,245.932190 
	C532.820984,263.984161 535.966125,283.135620 531.992676,303.365845 
	C528.867615,319.276245 522.037354,333.350677 511.105194,345.409363 
	C501.035767,356.516388 488.743500,364.340607 474.835693,369.549225 
	C460.913208,374.763336 446.414520,377.049561 432.014038,377.023071 
	C435.160461,372.007690 438.950958,367.429382 441.140503,362.182983 
	C446.340546,349.723297 444.243500,338.071075 431.723541,332.875824 
	C418.943481,327.572632 400.469727,333.997711 392.881409,343.860565 
	C392.145630,344.816833 392.430634,347.387238 393.215210,348.553406 
	C399.464783,357.842224 406.769043,366.146515 415.592896,373.201935 
	C434.987244,388.709442 456.753082,394.677765 481.334015,391.072449 
	C499.320038,388.434418 514.438904,380.361755 527.995605,367.506104 
M73.503960,335.012573 
	C66.442940,325.272552 62.466072,314.231812 60.290417,302.546967 
	C57.512794,287.629181 58.791756,272.961792 63.810959,258.615936 
	C69.281418,242.980347 78.797935,230.392517 92.006622,220.458298 
	C106.164825,209.809967 122.374550,204.521179 139.719452,203.134521 
	C157.675842,201.698959 175.225327,204.371994 191.980042,211.384369 
	C192.466705,211.588028 193.291016,210.984970 194.166122,210.687225 
	C183.774551,199.935074 172.523590,191.021149 159.043350,184.933044 
	C143.462128,177.896072 127.342300,176.459244 110.671181,178.984116 
	C87.781525,182.450836 69.828011,194.474258 55.595242,212.064804 
	C40.491486,230.731812 32.942398,252.696045 31.144600,276.427826 
	C29.964521,292.005402 31.752592,307.467010 36.793087,322.433197 
	C43.969315,343.740753 55.599293,361.830872 73.860680,375.415161 
	C93.860840,390.292908 116.239426,395.129089 140.435242,390.687164 
	C162.368423,386.660553 179.158264,373.797607 193.265121,357.143921 
	C196.246414,353.624390 198.656387,349.620941 201.204422,346.017487 
	C192.654144,335.446930 182.144287,330.011292 169.142380,331.113037 
	C155.993073,332.227264 145.767914,340.568268 149.798401,356.701263 
	C151.730911,364.436554 155.078171,371.066559 161.553650,377.293945 
	C154.262802,376.795715 148.100830,376.921722 142.151535,375.858093 
	C128.302658,373.382172 114.844177,369.725525 102.560539,362.301910 
	C91.081985,355.364838 81.070015,347.100922 73.503960,335.012573 
M400.001343,389.501648 
	C393.559326,382.044067 387.117310,374.586456 380.140991,366.510345 
	C378.959564,373.540741 378.116699,380.085480 376.706879,386.505737 
	C375.359955,392.639679 375.404541,397.740936 380.722351,402.508514 
	C385.822113,407.080658 388.639130,413.450500 385.842743,420.421204 
	C384.380219,424.066833 381.299469,427.040863 379.148224,430.443817 
	C378.310608,431.768890 377.269409,433.631805 377.600281,434.921509 
	C379.856293,443.715576 384.454132,451.294586 390.506317,458.012634 
	C408.163086,477.612091 430.877594,482.184052 455.636536,478.823212 
	C474.844818,476.215851 491.109772,466.759247 504.983673,453.430267 
	C516.472229,442.393005 525.395142,429.307098 532.857910,415.315552 
	C537.132629,407.301117 540.517395,398.812012 544.302795,390.536591 
	C543.969849,390.185028 543.636902,389.833466 543.303955,389.481903 
	C523.559326,409.070099 500.099060,419.482880 472.285675,420.079224 
	C443.767120,420.690765 420.492859,409.421600 400.001343,389.501648 
M73.635437,407.953888 
	C65.579918,402.332886 57.524395,396.711853 48.261101,390.248108 
	C50.735207,396.121582 52.475117,400.598358 54.481831,404.952087 
	C60.876625,418.826233 68.512886,432.058228 78.432449,443.638092 
	C88.042862,454.857056 98.946640,464.897491 112.653099,471.179718 
	C129.944305,479.104980 147.992569,481.785095 166.726151,477.967560 
	C189.810532,473.263458 205.277832,459.446625 214.127594,437.777222 
	C215.468338,434.494324 214.903091,432.442535 212.571075,429.942932 
	C203.055267,419.743347 203.467743,409.483795 214.887115,399.356293 
	C216.289230,398.112793 217.062057,395.257477 216.862671,393.276276 
	C216.213760,386.828186 215.090912,380.418182 213.906433,374.038818 
	C213.504135,371.872162 212.377258,369.840057 211.778885,368.265839 
	C203.271255,377.270782 195.430634,386.197144 186.923889,394.435638 
	C171.899506,408.986084 153.635910,417.748016 132.960541,419.770782 
	C112.522530,421.770416 92.527405,418.872253 73.635437,407.953888 
M332.353271,557.999634 
	C337.497955,557.130981 342.642609,556.262329 348.863251,555.212036 
	C318.029572,526.416626 309.795685,490.122101 308.885651,451.139038 
	C300.437439,451.139038 292.486908,451.139038 283.676239,451.139038 
	C282.394775,489.861389 275.035309,526.451416 244.316055,554.096436 
	C245.654831,555.040527 246.262466,555.823303 246.950027,555.901306 
	C259.442017,557.318054 271.927551,559.548706 284.447205,559.772522 
	C300.095428,560.052246 315.773407,558.666626 332.353271,557.999634 
M331.049744,456.175995 
	C331.718811,460.176697 332.164856,464.229950 333.092499,468.169769 
	C340.008514,497.542877 354.819397,521.580322 381.125824,537.406860 
	C385.551056,540.069153 389.869476,543.832214 396.504028,541.164062 
	C417.325592,532.790588 436.567932,521.717896 454.937958,508.983429 
	C455.401276,508.662262 455.729858,508.112640 456.043243,507.619965 
	C456.303497,507.210785 456.448608,506.728363 456.534882,506.530426 
	C437.037628,507.644958 417.960236,508.249451 399.920532,499.966400 
	C375.609039,488.803619 360.275665,470.214203 354.463348,443.763458 
	C348.547089,445.194611 342.921967,447.571289 337.264252,447.651550 
	C331.022430,447.740173 330.377289,450.513428 331.049744,456.175995 
M222.493713,477.004028 
	C217.984787,481.515350 213.860657,486.512939 208.892700,490.444214 
	C195.520325,501.026123 179.887772,506.035126 163.013138,506.913727 
	C153.751770,507.395905 144.444672,507.000000 135.097580,507.000000 
	C135.124771,506.845032 135.018723,507.114716 135.078125,507.158142 
	C153.152786,520.375244 172.542969,531.279297 193.179123,539.943542 
	C197.863998,541.910461 202.476105,543.075500 207.522766,539.918335 
	C220.196594,531.989502 231.862579,523.021790 240.707077,510.786804 
	C252.354340,494.674591 258.533997,476.493805 260.983704,456.921173 
	C261.299896,454.394806 262.492584,450.849213 261.317017,449.546722 
	C259.798889,447.864563 256.320862,447.894745 253.659378,447.312958 
	C248.232346,446.126678 242.786987,445.024292 237.492538,443.917328 
	C235.609131,456.594055 230.449966,467.047760 222.493713,477.004028 
M470.476166,96.984695 
	C451.313599,80.179955 430.450775,65.967117 407.083679,55.217255 
	C434.187408,88.389297 445.071411,124.027443 424.374725,165.825897 
	C456.744446,148.629044 488.491730,141.115341 522.216980,159.696991 
	C514.895203,148.071548 507.525604,136.877502 498.935425,126.715195 
	C490.248230,116.438072 480.352448,107.182571 470.476166,96.984695 
M128.561432,150.993286 
	C141.333420,155.048859 154.105423,159.104431 166.820358,163.141891 
	C165.642136,160.288971 164.260117,157.081512 162.985397,153.831985 
	C157.387711,139.562088 155.320068,124.815414 158.193344,109.709373 
	C161.418564,92.752991 168.709000,77.558739 179.428284,63.993759 
	C181.032715,61.963390 182.066803,59.482349 184.025635,56.052628 
	C146.156021,70.103584 77.184715,133.937271 70.618454,160.662308 
	C81.309029,154.882065 92.001884,150.103348 103.819710,149.726746 
	C111.752167,149.473923 119.725037,150.488983 128.561432,150.993286 
M329.557037,44.035973 
	C333.120667,47.606194 336.728088,51.133923 340.239685,54.754581 
	C350.962311,65.810234 359.819946,78.293617 366.885315,91.896225 
	C375.425049,108.337379 381.344604,125.659828 383.126801,144.345291 
	C384.306702,156.716141 384.605591,168.912292 382.076721,181.129288 
	C381.213013,185.301788 380.817810,189.571289 380.208557,193.796463 
	C380.696930,194.059677 381.185272,194.322906 381.673645,194.586121 
	C385.437805,188.812988 389.694794,183.297760 392.875671,177.219376 
	C403.274445,157.348145 407.484497,136.326920 404.065948,113.880089 
	C401.317078,95.830864 393.542114,80.295555 381.378357,66.980614 
	C370.221954,54.768318 356.372009,46.190643 341.237305,39.803905 
	C333.807770,36.668709 326.013641,34.397541 319.540771,32.138824 
	C322.390839,35.564747 325.712219,39.557224 329.557037,44.035973 
M229.948639,83.413017 
	C241.580948,63.875542 256.674652,47.296143 273.970856,32.575592 
	C259.668213,35.336349 246.662964,40.852886 234.394791,48.005196 
	C218.301987,57.387264 205.377838,69.954849 196.689224,86.685242 
	C188.961746,101.564880 186.105545,117.201752 186.825714,133.968719 
	C187.564880,151.177887 193.506363,166.491745 201.160980,181.429153 
	C202.336243,183.722580 203.910339,185.828949 205.442398,187.917358 
	C206.988358,190.024673 208.711578,192.001953 210.357132,194.036194 
	C210.836853,193.913666 211.316574,193.791138 211.796295,193.668594 
	C202.802460,154.589005 208.966583,118.080566 229.948639,83.413017 
M290.252045,430.000000 
	C295.253784,430.000000 300.255829,429.966370 305.257233,430.006042 
	C323.179565,430.148254 340.674866,427.711853 357.352509,420.912262 
	C360.152222,419.770813 362.452698,417.404785 364.983856,415.604614 
	C362.616516,413.866730 360.480316,411.565521 357.843750,410.483917 
	C342.640472,404.246979 326.537354,401.874847 310.303284,401.164856 
	C298.587494,400.652466 286.805634,401.692413 275.052002,401.992554 
	C262.433838,402.314789 250.218643,404.831360 238.397476,409.091248 
	C234.267807,410.579437 230.478790,413.012939 226.534195,415.014740 
	C226.605042,415.569885 226.675888,416.125031 226.746750,416.680176 
	C230.452271,418.461060 234.045425,420.544250 237.882767,421.970428 
	C254.459045,428.131165 271.683655,430.380005 290.252045,430.000000 
z"/>
<path fill="#043A63" opacity="1.000000" stroke="none" 
	d="
M250.972229,244.078491 
	C247.962097,231.794357 244.462830,220.015121 242.173660,208.005219 
	C240.586227,199.676971 240.415787,191.041870 240.046936,182.525024 
	C238.952072,157.243591 243.671341,132.831940 252.429764,109.263474 
	C262.020325,83.455826 274.987457,59.456486 293.028107,38.425743 
	C293.955841,37.344276 294.692810,36.099190 296.274170,33.860653 
	C301.361420,40.667004 306.246704,46.875004 310.780060,53.330166 
	C324.231262,72.483688 334.753235,93.130997 342.077911,115.395767 
	C347.527557,131.960968 350.699524,148.864594 352.185150,166.300629 
	C354.459015,192.987915 350.311310,218.636063 341.900421,243.719421 
	C335.299042,263.406372 327.347748,282.654358 321.154480,302.459534 
	C317.315002,314.737610 315.171082,327.617188 313.122833,340.364441 
	C310.998230,353.586731 309.907135,366.975128 308.340302,380.496094 
	C300.764343,380.496094 292.711731,380.496094 283.917725,380.496094 
	C283.307770,374.490356 282.428925,368.066437 282.041931,361.613037 
	C280.840240,341.574432 277.658142,321.797729 271.728790,302.704071 
	C265.624634,283.047516 257.973602,263.871338 250.972229,244.078491 
z"/>
<path fill="#043A63" opacity="1.000000" stroke="none" 
	d="
M135.262955,229.022308 
	C162.035248,223.726181 186.977875,226.175339 209.727631,241.905258 
	C217.564346,247.323792 223.448090,254.279922 228.038193,262.444244 
	C240.740021,285.036743 249.525070,309.099884 253.923294,334.625641 
	C256.438568,349.223511 257.993439,363.986450 260.008484,378.671265 
	C260.531189,382.480469 258.785034,383.606934 255.131348,384.128632 
	C249.240524,384.969818 243.468231,386.640961 237.369751,388.024139 
	C235.358032,371.098236 230.374908,355.211914 222.078369,340.344208 
	C210.869568,320.257629 194.807968,306.086456 171.843796,302.281372 
	C154.394012,299.389984 135.691223,306.671936 126.021790,323.880615 
	C123.027664,329.209259 122.531898,336.841339 124.419327,348.462830 
	C116.988182,345.255188 110.917732,340.730316 105.681938,335.124176 
	C96.185181,324.955719 91.362534,312.373535 89.164261,299.024933 
	C83.991989,267.617310 96.438103,243.254730 128.879745,231.047119 
	C130.839890,230.309540 132.850800,229.706848 135.262955,229.022308 
z"/>
<path fill="#043A63" opacity="1.000000" stroke="none" 
	d="
M366.711914,258.728088 
	C377.640533,242.157501 393.271851,233.268814 411.793518,229.100235 
	C418.908966,227.498779 426.304047,225.975098 433.517731,226.194092 
	C454.782043,226.839645 474.949188,231.502686 490.199829,247.850021 
	C498.843323,257.115051 503.580872,268.307465 504.063019,281.256592 
	C504.601654,295.725037 502.296692,309.723236 495.629395,322.428833 
	C489.663696,333.797394 480.952545,343.089111 467.749969,348.411316 
	C468.282166,346.168579 468.688141,344.671844 468.989685,343.154327 
	C472.693604,324.513306 458.155609,309.866150 444.659302,305.080994 
	C423.908264,297.723633 405.641510,303.428802 389.464325,317.114044 
	C370.780762,332.919586 361.673553,354.046936 356.983002,377.474121 
	C356.288635,380.942139 355.495880,384.390442 354.726868,387.948669 
	C347.133148,386.177673 339.786713,384.464355 332.115021,382.675171 
	C335.317535,339.166901 343.744354,297.125092 366.711914,258.728088 
z"/>
<path fill="#043A63" opacity="1.000000" stroke="none" 
	d="
M527.743774,367.755737 
	C514.438904,380.361755 499.320038,388.434418 481.334015,391.072449 
	C456.753082,394.677765 434.987244,388.709442 415.592896,373.201935 
	C406.769043,366.146515 399.464783,357.842224 393.215210,348.553406 
	C392.430634,347.387238 392.145630,344.816833 392.881409,343.860565 
	C400.469727,333.997711 418.943481,327.572632 431.723541,332.875824 
	C444.243500,338.071075 446.340546,349.723297 441.140503,362.182983 
	C438.950958,367.429382 435.160461,372.007690 432.014038,377.023071 
	C446.414520,377.049561 460.913208,374.763336 474.835693,369.549225 
	C488.743500,364.340607 501.035767,356.516388 511.105194,345.409363 
	C522.037354,333.350677 528.867615,319.276245 531.992676,303.365845 
	C535.966125,283.135620 532.820984,263.984161 522.976135,245.932190 
	C515.683350,232.559830 505.219940,222.437286 491.922668,214.914948 
	C474.061981,204.811035 454.773773,201.202332 434.788025,203.291580 
	C423.035461,204.520172 411.586243,208.648697 399.997681,211.460815 
	C399.739258,211.523499 399.445618,211.440765 397.313477,211.326218 
	C405.089935,204.661636 411.501312,198.354004 418.709717,193.150452 
	C436.261230,180.480499 456.288788,176.045547 477.570099,178.128677 
	C493.129913,179.651749 507.321411,185.567230 519.674561,195.245697 
	C541.365906,212.240555 554.319458,234.564651 558.965515,261.657654 
	C560.313110,269.515869 562.072327,277.522919 561.803162,285.398926 
	C560.904114,311.712463 554.270386,336.322571 537.240540,357.217255 
	C534.330933,360.787140 531.085754,364.083435 527.743774,367.755737 
z"/>
<path fill="#043A63" opacity="1.000000" stroke="none" 
	d="
M73.726959,335.311279 
	C81.070015,347.100922 91.081985,355.364838 102.560539,362.301910 
	C114.844177,369.725525 128.302658,373.382172 142.151535,375.858093 
	C148.100830,376.921722 154.262802,376.795715 161.553650,377.293945 
	C155.078171,371.066559 151.730911,364.436554 149.798401,356.701263 
	C145.767914,340.568268 155.993073,332.227264 169.142380,331.113037 
	C182.144287,330.011292 192.654144,335.446930 201.204422,346.017487 
	C198.656387,349.620941 196.246414,353.624390 193.265121,357.143921 
	C179.158264,373.797607 162.368423,386.660553 140.435242,390.687164 
	C116.239426,395.129089 93.860840,390.292908 73.860680,375.415161 
	C55.599293,361.830872 43.969315,343.740753 36.793087,322.433197 
	C31.752592,307.467010 29.964521,292.005402 31.144600,276.427826 
	C32.942398,252.696045 40.491486,230.731812 55.595242,212.064804 
	C69.828011,194.474258 87.781525,182.450836 110.671181,178.984116 
	C127.342300,176.459244 143.462128,177.896072 159.043350,184.933044 
	C172.523590,191.021149 183.774551,199.935074 194.166122,210.687225 
	C193.291016,210.984970 192.466705,211.588028 191.980042,211.384369 
	C175.225327,204.371994 157.675842,201.698959 139.719452,203.134521 
	C122.374550,204.521179 106.164825,209.809967 92.006622,220.458298 
	C78.797935,230.392517 69.281418,242.980347 63.810959,258.615936 
	C58.791756,272.961792 57.512794,287.629181 60.290417,302.546967 
	C62.466072,314.231812 66.442940,325.272552 73.726959,335.311279 
z"/>
<path fill="#043A63" opacity="1.000000" stroke="none" 
	d="
M400.252014,389.751678 
	C420.492859,409.421600 443.767120,420.690765 472.285675,420.079224 
	C500.099060,419.482880 523.559326,409.070099 543.303955,389.481903 
	C543.636902,389.833466 543.969849,390.185028 544.302795,390.536591 
	C540.517395,398.812012 537.132629,407.301117 532.857910,415.315552 
	C525.395142,429.307098 516.472229,442.393005 504.983673,453.430267 
	C491.109772,466.759247 474.844818,476.215851 455.636536,478.823212 
	C430.877594,482.184052 408.163086,477.612091 390.506317,458.012634 
	C384.454132,451.294586 379.856293,443.715576 377.600281,434.921509 
	C377.269409,433.631805 378.310608,431.768890 379.148224,430.443817 
	C381.299469,427.040863 384.380219,424.066833 385.842743,420.421204 
	C388.639130,413.450500 385.822113,407.080658 380.722351,402.508514 
	C375.404541,397.740936 375.359955,392.639679 376.706879,386.505737 
	C378.116699,380.085480 378.959564,373.540741 380.140991,366.510345 
	C387.117310,374.586456 393.559326,382.044067 400.252014,389.751678 
z"/>
<path fill="#043A63" opacity="1.000000" stroke="none" 
	d="
M74.013496,408.002258 
	C92.527405,418.872253 112.522530,421.770416 132.960541,419.770782 
	C153.635910,417.748016 171.899506,408.986084 186.923889,394.435638 
	C195.430634,386.197144 203.271255,377.270782 211.778885,368.265839 
	C212.377258,369.840057 213.504135,371.872162 213.906433,374.038818 
	C215.090912,380.418182 216.213760,386.828186 216.862671,393.276276 
	C217.062057,395.257477 216.289230,398.112793 214.887115,399.356293 
	C203.467743,409.483795 203.055267,419.743347 212.571075,429.942932 
	C214.903091,432.442535 215.468338,434.494324 214.127594,437.777222 
	C205.277832,459.446625 189.810532,473.263458 166.726151,477.967560 
	C147.992569,481.785095 129.944305,479.104980 112.653099,471.179718 
	C98.946640,464.897491 88.042862,454.857056 78.432449,443.638092 
	C68.512886,432.058228 60.876625,418.826233 54.481831,404.952087 
	C52.475117,400.598358 50.735207,396.121582 48.261101,390.248108 
	C57.524395,396.711853 65.579918,402.332886 74.013496,408.002258 
z"/>
<path fill="#043A63" opacity="1.000000" stroke="none" 
	d="
M331.895905,557.999817 
	C315.773407,558.666626 300.095428,560.052246 284.447205,559.772522 
	C271.927551,559.548706 259.442017,557.318054 246.950027,555.901306 
	C246.262466,555.823303 245.654831,555.040527 244.316055,554.096436 
	C275.035309,526.451416 282.394775,489.861389 283.676239,451.139038 
	C292.486908,451.139038 300.437439,451.139038 308.885651,451.139038 
	C309.795685,490.122101 318.029572,526.416626 348.863251,555.212036 
	C342.642609,556.262329 337.497955,557.130981 331.895905,557.999817 
z"/>
<path fill="#043A63" opacity="1.000000" stroke="none" 
	d="
M331.027435,455.726685 
	C330.377289,450.513428 331.022430,447.740173 337.264252,447.651550 
	C342.921967,447.571289 348.547089,445.194611 354.463348,443.763458 
	C360.275665,470.214203 375.609039,488.803619 399.920532,499.966400 
	C417.960236,508.249451 437.037628,507.644958 456.534882,506.530426 
	C456.448608,506.728363 456.303497,507.210785 456.043243,507.619965 
	C455.729858,508.112640 455.401276,508.662262 454.937958,508.983429 
	C436.567932,521.717896 417.325592,532.790588 396.504028,541.164062 
	C389.869476,543.832214 385.551056,540.069153 381.125824,537.406860 
	C354.819397,521.580322 340.008514,497.542877 333.092499,468.169769 
	C332.164856,464.229950 331.718811,460.176697 331.027435,455.726685 
z"/>
<path fill="#043A63" opacity="1.000000" stroke="none" 
	d="
M222.751877,476.744812 
	C230.449966,467.047760 235.609131,456.594055 237.492538,443.917328 
	C242.786987,445.024292 248.232346,446.126678 253.659378,447.312958 
	C256.320862,447.894745 259.798889,447.864563 261.317017,449.546722 
	C262.492584,450.849213 261.299896,454.394806 260.983704,456.921173 
	C258.533997,476.493805 252.354340,494.674591 240.707077,510.786804 
	C231.862579,523.021790 220.196594,531.989502 207.522766,539.918335 
	C202.476105,543.075500 197.863998,541.910461 193.179123,539.943542 
	C172.542969,531.279297 153.152786,520.375244 135.078125,507.158142 
	C135.018723,507.114716 135.124771,506.845032 135.097580,507.000000 
	C144.444672,507.000000 153.751770,507.395905 163.013138,506.913727 
	C179.887772,506.035126 195.520325,501.026123 208.892700,490.444214 
	C213.860657,486.512939 217.984787,481.515350 222.751877,476.744812 
z"/>
<path fill="#043A63" opacity="1.000000" stroke="none" 
	d="
M470.731110,97.232132 
	C480.352448,107.182571 490.248230,116.438072 498.935425,126.715195 
	C507.525604,136.877502 514.895203,148.071548 522.216980,159.696991 
	C488.491730,141.115341 456.744446,148.629044 424.374725,165.825897 
	C445.071411,124.027443 434.187408,88.389297 407.083679,55.217255 
	C430.450775,65.967117 451.313599,80.179955 470.731110,97.232132 
z"/>
<path fill="#043A63" opacity="1.000000" stroke="none" 
	d="
M128.120636,150.965027 
	C119.725037,150.488983 111.752167,149.473923 103.819710,149.726746 
	C92.001884,150.103348 81.309029,154.882065 70.618454,160.662308 
	C77.184715,133.937271 146.156021,70.103584 184.025635,56.052628 
	C182.066803,59.482349 181.032715,61.963390 179.428284,63.993759 
	C168.709000,77.558739 161.418564,92.752991 158.193344,109.709373 
	C155.320068,124.815414 157.387711,139.562088 162.985397,153.831985 
	C164.260117,157.081512 165.642136,160.288971 166.820358,163.141891 
	C154.105423,159.104431 141.333420,155.048859 128.120636,150.965027 
z"/>
<path fill="#043A63" opacity="1.000000" stroke="none" 
	d="
M329.295319,43.792835 
	C325.712219,39.557224 322.390839,35.564747 319.540771,32.138824 
	C326.013641,34.397541 333.807770,36.668709 341.237305,39.803905 
	C356.372009,46.190643 370.221954,54.768318 381.378357,66.980614 
	C393.542114,80.295555 401.317078,95.830864 404.065948,113.880089 
	C407.484497,136.326920 403.274445,157.348145 392.875671,177.219376 
	C389.694794,183.297760 385.437805,188.812988 381.673645,194.586121 
	C381.185272,194.322906 380.696930,194.059677 380.208557,193.796463 
	C380.817810,189.571289 381.213013,185.301788 382.076721,181.129288 
	C384.605591,168.912292 384.306702,156.716141 383.126801,144.345291 
	C381.344604,125.659828 375.425049,108.337379 366.885315,91.896225 
	C359.819946,78.293617 350.962311,65.810234 340.239685,54.754581 
	C336.728088,51.133923 333.120667,47.606194 329.295319,43.792835 
z"/>
<path fill="#043A63" opacity="1.000000" stroke="none" 
	d="
M229.719635,83.710472 
	C208.966583,118.080566 202.802460,154.589005 211.796295,193.668594 
	C211.316574,193.791138 210.836853,193.913666 210.357132,194.036194 
	C208.711578,192.001953 206.988358,190.024673 205.442398,187.917358 
	C203.910339,185.828949 202.336243,183.722580 201.160980,181.429153 
	C193.506363,166.491745 187.564880,151.177887 186.825714,133.968719 
	C186.105545,117.201752 188.961746,101.564880 196.689224,86.685242 
	C205.377838,69.954849 218.301987,57.387264 234.394791,48.005196 
	C246.662964,40.852886 259.668213,35.336349 273.970856,32.575592 
	C256.674652,47.296143 241.580948,63.875542 229.719635,83.710472 
z"/>
<path fill="#043A63" opacity="1.000000" stroke="none" 
	d="
M289.776428,430.000000 
	C271.683655,430.380005 254.459045,428.131165 237.882767,421.970428 
	C234.045425,420.544250 230.452271,418.461060 226.746750,416.680176 
	C226.675888,416.125031 226.605042,415.569885 226.534195,415.014740 
	C230.478790,413.012939 234.267807,410.579437 238.397476,409.091248 
	C250.218643,404.831360 262.433838,402.314789 275.052002,401.992554 
	C286.805634,401.692413 298.587494,400.652466 310.303284,401.164856 
	C326.537354,401.874847 342.640472,404.246979 357.843750,410.483917 
	C360.480316,411.565521 362.616516,413.866730 364.983856,415.604614 
	C362.452698,417.404785 360.152222,419.770813 357.352509,420.912262 
	C340.674866,427.711853 323.179565,430.148254 305.257233,430.006042 
	C300.255829,429.966370 295.253784,430.000000 289.776428,430.000000 
z"/>
</svg>